<svg xmlns="http://www.w3.org/2000/svg" viewBox="0 0 512 512">
  <rect width="512" height="512" rx="112" fill="#071316"/>
  <circle cx="168" cy="168" r="92" fill="#66dcc9" opacity="0.24"/>
  <circle cx="360" cy="338" r="112" fill="#fff36d" opacity="0.18"/>
  <path fill="#66dcc9" d="M91 279c55-58 145-73 214-34l58-47c8-7 20 2 16 12l-22 61 22 61c4 10-8 19-16 12l-58-47c-69 39-159 24-214-34-4-4-4-11 0-16Z"/>
  <circle cx="265" cy="251" r="12" fill="#071316"/>
  <path fill="#ff9b42" d="M143 206c-37-20-66-53-82-93 43 9 79 32 105 65l-23 28Z"/>
  <path fill="#fff6a9" d="M158 331c38 15 81 16 121 2 10-3 17 9 10 17-31 34-84 46-127 28-19-8-22-40-4-47Z"/>
</svg>
